<svg width="381" height="301" viewBox="0 0 381 301" fill="none" xmlns="http://www.w3.org/2000/svg">
<path d="M181.919 207.781C176.699 199.785 177.461 188.387 183.679 181.136C185.615 178.892 188.317 176.94 191.266 177.195C194.289 177.456 196.718 180.047 197.638 182.926C198.558 185.804 198.237 188.951 197.7 191.939C196.943 196.122 195.68 200.402 192.78 203.505C189.88 206.608 185.642 209.808 181.919 207.781Z" fill="#093F2E"/>
<path d="M184.805 246.26C183.867 243.936 183.683 241.375 184.279 238.939C184.876 236.504 186.222 234.319 188.128 232.693C189.329 231.71 190.896 230.952 192.397 231.371C193.897 231.79 194.945 233.337 195.156 234.897C195.367 236.457 194.923 238.057 194.373 239.547C193.607 241.632 192.568 243.721 190.795 245.061C189.021 246.401 186.539 247.658 184.805 246.269" fill="#093F2E"/>
<path d="M172.219 243.514C173.654 236.427 169.926 228.607 163.519 225.271C161.534 224.235 159.083 223.622 157.081 224.627C155.078 225.632 154.044 228.153 154.207 230.454C154.37 232.755 155.47 234.862 156.685 236.815C158.388 239.543 160.474 242.196 163.378 243.572C166.283 244.947 170.173 245.991 172.219 243.514Z" fill="#093F2E"/>
<path d="M173.126 224.354C175.621 216.279 171.387 206.489 164.324 201.874C162.124 200.433 159.356 199.432 156.909 200.367C154.462 201.301 152.948 204.127 152.882 206.811C152.816 209.495 153.837 212.1 155.021 214.494C156.68 217.87 158.797 221.202 162.014 223.142C165.231 225.081 170.45 226.999 173.126 224.354Z" fill="#093F2E"/>
<path d="M178.143 263.821C178.099 263.694 178.071 263.562 178.059 263.428C178.015 263.133 177.962 262.763 177.892 262.304C177.857 262.053 177.821 261.784 177.782 261.489L177.597 260.528C177.465 259.841 177.329 259.052 177.104 258.196C176.998 257.756 176.893 257.315 176.778 256.874L176.338 255.433C176.07 254.432 175.674 253.396 175.3 252.29C174.407 249.924 173.368 247.616 172.188 245.379C170.978 243.157 169.631 241.013 168.157 238.957C167.444 238.035 166.802 237.132 166.115 236.352L165.147 235.206L164.21 234.188C163.62 233.531 163.044 232.98 162.542 232.491L161.847 231.807L161.231 231.261L160.386 230.498C160.283 230.413 160.189 230.318 160.104 230.216C160.222 230.278 160.332 230.355 160.43 230.445L161.31 231.159L161.943 231.684L162.665 232.349C163.18 232.83 163.774 233.368 164.373 234.02L165.336 235.029L166.322 236.171C167.022 236.947 167.678 237.85 168.399 238.772C171.43 242.869 173.851 247.386 175.586 252.18C175.955 253.295 176.343 254.34 176.602 255.353C176.743 255.856 176.875 256.341 177.007 256.808L177.311 258.166C177.522 259.047 177.645 259.823 177.751 260.519C177.807 260.863 177.86 261.185 177.909 261.485C177.94 261.784 177.967 262.058 177.993 262.309C178.037 262.772 178.072 263.146 178.099 263.446C178.126 263.569 178.141 263.695 178.143 263.821Z" fill="#B5C0AC"/>
<path d="M177.958 265.271C177.952 265.218 177.952 265.165 177.958 265.112C177.958 264.984 177.98 264.83 177.993 264.641C178.033 264.2 178.09 263.605 178.156 262.847C178.195 262.454 178.239 262.022 178.283 261.551C178.327 261.079 178.332 260.563 178.363 260.008C178.402 258.897 178.508 257.637 178.473 256.239C178.473 255.537 178.473 254.803 178.473 254.036C178.473 253.273 178.393 252.484 178.354 251.664C178.301 250.02 178.077 248.279 177.879 246.441C176.857 238.486 174.564 230.747 171.088 223.521C170.257 221.872 169.495 220.29 168.646 218.884C168.232 218.174 167.863 217.473 167.453 216.83C167.044 216.186 166.643 215.574 166.269 214.983C165.539 213.788 164.764 212.779 164.126 211.898C163.801 211.457 163.506 211.016 163.22 210.641C162.934 210.267 162.652 209.936 162.41 209.628L161.292 208.213L161.011 207.838C160.975 207.798 160.946 207.754 160.923 207.706C160.923 207.706 160.967 207.741 161.037 207.816L161.345 208.169L162.511 209.544L163.347 210.544C163.647 210.915 163.946 211.338 164.28 211.783C164.936 212.665 165.724 213.674 166.481 214.868L167.691 216.706C168.105 217.35 168.483 218.051 168.905 218.76C169.786 220.166 170.538 221.749 171.383 223.402C174.9 230.637 177.196 238.406 178.178 246.393C178.367 248.239 178.583 249.989 178.618 251.638C178.649 252.462 178.715 253.255 178.715 254.022C178.715 254.789 178.715 255.521 178.715 256.226C178.715 257.628 178.614 258.871 178.552 260.004C178.517 260.559 178.495 261.079 178.446 261.555L178.288 262.847C178.195 263.605 178.116 264.2 178.059 264.636L177.993 265.103C177.989 265.16 177.977 265.217 177.958 265.271Z" fill="#B5C0AC"/>
<path d="M191.543 186.848C191.528 186.901 191.505 186.951 191.477 186.998C191.415 187.108 191.341 187.25 191.253 187.417C191.032 187.805 190.738 188.338 190.372 189.013C190.183 189.361 189.932 189.735 189.73 190.163L189.03 191.569L188.225 193.182C187.956 193.764 187.697 194.386 187.411 195.034C187.125 195.682 186.817 196.356 186.53 197.074L185.65 199.327L185.21 200.512C185.069 200.921 184.923 201.335 184.77 201.755C184.489 202.597 184.198 203.466 183.89 204.352C182.781 207.935 181.734 211.924 180.849 216.16C179.965 220.396 179.392 224.486 178.948 228.211C178.504 231.935 178.288 235.312 178.209 238.15C178.138 239.565 178.121 240.848 178.116 241.976C178.112 243.104 178.094 244.074 178.116 244.867C178.138 245.661 178.138 246.252 178.143 246.697V247.173C178.148 247.227 178.148 247.282 178.143 247.336C178.129 247.283 178.121 247.228 178.121 247.173C178.121 247.045 178.099 246.891 178.09 246.701C178.068 246.26 178.037 245.643 177.997 244.872C177.958 244.101 177.936 243.109 177.936 241.976C177.936 240.843 177.936 239.561 177.975 238.141C178.024 235.298 178.279 231.918 178.644 228.175C179.01 224.433 179.665 220.347 180.523 216.094C181.382 211.84 182.473 207.847 183.604 204.259C183.897 203.377 184.191 202.511 184.484 201.658C184.629 201.218 184.77 200.821 184.924 200.415L185.391 199.225C185.699 198.45 185.994 197.696 186.271 196.973C186.548 196.25 186.887 195.585 187.173 194.937C187.459 194.289 187.736 193.667 188.018 193.09L188.85 191.485L189.571 190.088C189.805 189.647 190.042 189.29 190.245 188.947L191.191 187.382L191.446 186.981C191.503 186.888 191.539 186.844 191.543 186.848Z" fill="#B5C0AC"/>
<path d="M189.769 235.902C189.612 236.242 189.426 236.567 189.215 236.876C188.832 237.489 188.308 238.392 187.697 239.521C187.085 240.649 186.403 242.029 185.716 243.585C185.03 245.141 184.396 246.895 183.802 248.768C183.208 250.642 182.794 252.471 182.482 254.137C182.169 255.803 181.949 257.328 181.826 258.611C181.703 259.893 181.619 260.929 181.588 261.652C181.587 262.027 181.558 262.401 181.5 262.772C181.453 262.399 181.438 262.023 181.456 261.648C181.456 260.925 181.483 259.885 181.584 258.589C181.685 257.293 181.875 255.768 182.169 254.08C182.834 250.42 183.934 246.854 185.448 243.457C186.064 242.072 186.75 240.718 187.503 239.402C188.146 238.282 188.704 237.396 189.123 236.806C189.315 236.488 189.531 236.186 189.769 235.902Z" fill="#B5C0AC"/>
<path d="M167.893 260.224H190.817L188.044 283.669H170.749L167.893 260.224Z" fill="#E6EBE3"/>
<path d="M168.729 282.58L170.675 285.11H188.044L190.047 282.659L168.729 282.58Z" fill="#E6EBE3"/>
<path d="M189.923 267.109C189.923 267.206 185.166 267.281 179.3 267.281C173.434 267.281 168.677 267.206 168.677 267.109C168.677 267.012 173.429 266.937 179.3 266.937C185.171 266.937 189.923 267.025 189.923 267.109Z" fill="#093F2E"/>
<path d="M189.923 268.678C189.923 268.775 185.166 268.85 179.3 268.85C173.434 268.85 168.677 268.775 168.677 268.678C168.677 268.581 173.429 268.511 179.3 268.511C185.171 268.511 189.923 268.585 189.923 268.678Z" fill="#093F2E"/>
<path d="M189.637 270.194C189.637 270.291 185.047 270.366 179.384 270.366C173.72 270.366 169.134 270.291 169.134 270.194C169.134 270.097 173.72 270.022 179.384 270.022C185.047 270.022 189.637 270.097 189.637 270.194Z" fill="#093F2E"/>
<path d="M245.034 148.708H58.6533L58.6885 33.2255C58.6885 31.1821 59.499 29.2224 60.9416 27.7774C62.3842 26.3325 64.3408 25.5208 66.381 25.5208H237.377C238.387 25.5202 239.388 25.7191 240.321 26.1061C241.255 26.4931 242.103 27.0606 242.818 27.7762C243.532 28.4917 244.099 29.3413 244.485 30.2764C244.871 31.2114 245.07 32.2135 245.069 33.2255L245.034 148.708Z" fill="#E6EBE3"/>
<path d="M42.4189 148.77H260.749V156.166C260.749 156.561 260.593 156.94 260.314 157.22C260.035 157.499 259.656 157.656 259.262 157.656H43.9064C43.5119 157.656 43.1335 157.499 42.8546 157.22C42.5756 156.94 42.4189 156.561 42.4189 156.166V148.77Z" fill="#093F2E"/>
<path opacity="0.2" d="M135.715 148.682H167.528V150.247C167.528 150.714 167.343 151.163 167.012 151.493C166.682 151.824 166.235 152.01 165.768 152.01H137.475C137.008 152.01 136.561 151.824 136.231 151.493C135.9 151.163 135.715 150.714 135.715 150.247V148.682Z" fill="#093F2E"/>
<path opacity="0.2" d="M261.009 154.844H42.4189V159.542H261.009V154.844Z" fill="black"/>
<path d="M235.22 33.9131H68.1501V140.951H235.22V33.9131Z" fill="white"/>
<path d="M75.8383 21.5274H227.224C227.864 21.5274 228.477 21.7819 228.93 22.2349C229.382 22.6879 229.636 23.3022 229.636 23.9428V109.792C229.636 110.433 229.382 111.047 228.93 111.5C228.477 111.953 227.864 112.208 227.224 112.208H75.8383C75.595 112.208 75.354 112.16 75.1293 112.067C74.9045 111.973 74.7002 111.837 74.5282 111.664C74.3561 111.492 74.2197 111.287 74.1266 111.062C74.0335 110.837 73.9855 110.596 73.9855 110.352V23.361C73.9913 22.8727 74.1891 22.4064 74.5359 22.0631C74.8827 21.7198 75.3507 21.5274 75.8383 21.5274Z" fill="#C0C7AE"/>
<path d="M76.3179 105.896L78.1355 110.427C78.1355 110.427 123.402 93.8583 151.452 109.867C151.452 109.867 139.007 87.5156 76.3179 105.896Z" fill="#B5C0AC"/>
<path d="M78.8572 110.427L224.764 109.925C224.796 109.924 224.826 109.914 224.851 109.894C224.876 109.875 224.894 109.848 224.902 109.818C224.911 109.788 224.909 109.756 224.898 109.726C224.886 109.697 224.866 109.672 224.839 109.656C221.186 107.54 195.042 93.9201 151.452 109.867C151.452 109.867 138.386 100.47 110.785 103.322C110.785 103.322 99.8576 103.441 78.8264 110.202C78.7999 110.21 78.777 110.227 78.762 110.25C78.7469 110.273 78.7407 110.301 78.7444 110.328C78.7482 110.355 78.7617 110.38 78.7824 110.399C78.8031 110.417 78.8296 110.427 78.8572 110.427Z" fill="#E6EBE3"/>
<path d="M170.639 120.992H129.101C127.742 120.992 126.641 122.096 126.641 123.456V127.833C126.641 129.194 127.742 130.297 129.101 130.297H170.639C171.998 130.297 173.099 129.194 173.099 127.833V123.456C173.099 122.096 171.998 120.992 170.639 120.992Z" fill="#093F2E"/>
<path d="M225.279 109.925L227.594 105.288L227.238 24.4938C181.118 4.69865 151.452 21.2938 151.452 21.2938C126.742 4.93226 76.0847 24.3307 76.0847 24.3307L76.3179 105.896C76.3179 105.896 132.084 87.6655 151.452 109.863C151.452 109.867 190.201 93.0385 225.279 109.925Z" fill="white"/>
<path d="M86.5673 29.3864C86.5673 29.3864 122.438 17.1902 149.256 27.469" stroke="#E6EBE3" stroke-miterlimit="10"/>
<path d="M86.5673 37.2366C86.5673 37.2366 122.438 25.0271 149.256 35.3148" stroke="#E6EBE3" stroke-miterlimit="10"/>
<path d="M86.5673 43.8614C86.5673 43.8614 122.438 31.652 149.256 41.944" stroke="#E6EBE3" stroke-miterlimit="10"/>
<path d="M86.5673 51.7116C86.5673 51.7116 122.438 39.5021 149.256 49.7898" stroke="#E6EBE3" stroke-miterlimit="10"/>
<path d="M86.5673 57.8163C86.5673 57.8163 122.438 45.6069 149.256 55.8945" stroke="#E6EBE3" stroke-miterlimit="10"/>
<path d="M86.5673 65.6753C86.5673 65.6753 122.438 53.4659 149.256 63.7579" stroke="#E6EBE3" stroke-miterlimit="10"/>
<path d="M87.4387 76.126C87.4387 76.126 123.309 63.9166 150.127 74.2087" stroke="#E6EBE3" stroke-miterlimit="10"/>
<path d="M87.4387 83.9762C87.4387 83.9762 123.309 71.7668 150.127 82.0544" stroke="#E6EBE3" stroke-miterlimit="10"/>
<path d="M87.4387 90.0809C87.4387 90.0809 123.309 77.8715 150.127 88.1592" stroke="#E6EBE3" stroke-miterlimit="10"/>
<path d="M87.4387 97.9267C87.4387 97.9267 123.309 85.7173 150.127 96.0093" stroke="#E6EBE3" stroke-miterlimit="10"/>
<path d="M159.748 30.7087C159.748 30.7087 195.636 18.5125 222.45 28.7913" stroke="#E6EBE3" stroke-miterlimit="10"/>
<path d="M159.748 38.5589C159.748 38.5589 195.618 26.3495 222.432 36.6371" stroke="#E6EBE3" stroke-miterlimit="10"/>
<path d="M159.748 45.1837C159.748 45.1837 195.618 32.9743 222.432 43.2664" stroke="#E6EBE3" stroke-miterlimit="10"/>
<path d="M159.748 53.0339C159.748 53.0339 195.618 40.8245 222.432 51.1121" stroke="#E6EBE3" stroke-miterlimit="10"/>
<path d="M159.748 59.1386C159.748 59.1386 195.618 46.9292 222.432 57.2168" stroke="#E6EBE3" stroke-miterlimit="10"/>
<path d="M159.748 66.9976C159.748 66.9976 195.618 54.7882 222.432 65.0802" stroke="#E6EBE3" stroke-miterlimit="10"/>
<path d="M160.628 77.4484C160.628 77.4484 196.498 65.2389 223.312 75.531" stroke="#E6EBE3" stroke-miterlimit="10"/>
<path d="M160.628 85.2985C160.628 85.2985 196.498 73.0891 223.312 83.3768" stroke="#E6EBE3" stroke-miterlimit="10"/>
<path d="M160.628 91.4032C160.628 91.4032 196.498 79.1938 223.312 89.4815" stroke="#E6EBE3" stroke-miterlimit="10"/>
<path d="M160.628 99.249C160.628 99.249 196.498 87.0396 223.312 97.3316" stroke="#E6EBE3" stroke-miterlimit="10"/>
<path d="M161.112 65.7061L160.861 17.6971C163.884 16.8002 166.974 16.1516 170.103 15.7577L169.803 66.0499L165.53 61.175L161.112 65.7061Z" fill="#C0C7AE"/>
<path d="M322.716 275.448C322.715 274.192 322.305 272.97 321.55 271.966V266.421L206.884 266.382V271.957C206.374 272.836 206.106 273.833 206.105 274.849C206.123 275.958 206.444 277.041 207.033 277.98C207.621 278.92 208.456 279.68 209.445 280.178C209.174 280.699 209.031 281.278 209.027 281.866C209.061 282.877 209.486 283.836 210.212 284.539C210.939 285.243 211.909 285.636 212.92 285.636C213.93 285.636 214.901 285.243 215.627 284.539C216.353 283.836 216.778 282.877 216.812 281.866C216.806 281.214 216.629 280.576 216.297 280.015C217.21 279.494 217.971 278.743 218.505 277.837C219.039 276.931 219.328 275.901 219.343 274.849C219.341 273.857 219.083 272.882 218.594 272.019H310.597C309.873 273.011 309.482 274.207 309.479 275.435C309.495 276.546 309.815 277.63 310.404 278.572C310.993 279.513 311.828 280.274 312.819 280.773C312.54 281.293 312.389 281.871 312.379 282.461C312.413 283.472 312.838 284.431 313.564 285.134C314.29 285.838 315.261 286.231 316.271 286.231C317.282 286.231 318.252 285.838 318.979 285.134C319.705 284.431 320.13 283.472 320.164 282.461C320.161 281.807 319.983 281.167 319.649 280.605C320.565 280.089 321.33 279.341 321.868 278.436C322.407 277.531 322.699 276.501 322.716 275.448Z" fill="#B5C0AC"/>
<path d="M231.801 129.433H296.492C298.961 129.433 301.405 129.92 303.685 130.866C305.965 131.812 308.037 133.199 309.783 134.947C311.528 136.695 312.913 138.77 313.857 141.054C314.802 143.339 315.288 145.786 315.288 148.259V218.624H212.997V148.263C212.996 145.79 213.482 143.341 214.427 141.056C215.372 138.77 216.757 136.694 218.503 134.946C220.25 133.197 222.323 131.81 224.605 130.864C226.886 129.918 229.332 129.432 231.801 129.433Z" fill="#B5C0AC"/>
<path d="M247.142 139.54C247.142 139.54 248.929 138.099 255.82 137.834C255.82 137.834 257.141 134.692 257.172 132.382C257.172 132.382 253.779 130.923 251.151 125.603C251.151 125.603 252.111 129.363 249.312 131.981C249.312 131.981 246.856 134.392 247.142 139.54Z" fill="#2F2E41"/>
<path opacity="0.2" d="M247.142 139.54C247.142 139.54 248.929 138.099 255.82 137.834C255.82 137.834 257.141 134.692 257.172 132.382C257.172 132.382 253.779 130.923 251.151 125.603C251.151 125.603 252.111 129.363 249.312 131.981C249.312 131.981 246.856 134.392 247.142 139.54Z" fill="black"/>
<path d="M269.08 137.654C267.882 135.921 267.304 133.833 267.438 131.73C267.438 131.73 272.988 127.476 273.467 122.213C273.652 123.437 274.018 124.625 274.554 125.74C275.726 128.329 277.416 130.649 279.519 132.558C281.191 134.114 283.088 137.094 280.597 141.537C277.014 139.577 273.116 138.263 269.08 137.654Z" fill="#2F2E41"/>
<path opacity="0.2" d="M269.08 137.654C267.882 135.921 267.304 133.833 267.438 131.73C267.438 131.73 272.988 127.476 273.467 122.213C273.652 123.437 274.018 124.625 274.554 125.74C275.726 128.329 277.416 130.649 279.519 132.558C281.191 134.114 283.088 137.094 280.597 141.537C277.014 139.577 273.116 138.263 269.08 137.654Z" fill="black"/>
<path d="M303.507 219.483L303.934 213.537L224.645 213.603V219.153L303.507 219.483Z" fill="#093F2E"/>
<path d="M338.586 206.282C338.36 201.764 336.409 197.506 333.137 194.389C329.864 191.271 325.521 189.532 321.004 189.532C316.488 189.532 312.145 191.271 308.872 194.389C305.6 197.506 303.649 201.764 303.423 206.282C303.424 207.23 303.499 208.176 303.648 209.112V219.549H224.439V206.282C224.425 203.264 223.639 200.3 222.154 197.673C220.669 195.047 218.536 192.846 215.959 191.282C213.382 189.718 210.447 188.842 207.435 188.739C204.424 188.637 201.436 189.31 198.759 190.695C196.081 192.08 193.803 194.13 192.144 196.649C190.484 199.168 189.498 202.072 189.279 205.082C189.061 208.092 189.617 211.108 190.896 213.841C192.175 216.574 194.132 218.933 196.582 220.691L198.914 259.81C199.026 261.597 199.813 263.275 201.115 264.503C202.417 265.731 204.136 266.417 205.925 266.421H322.254C324.19 266.423 326.051 265.673 327.446 264.329C328.841 262.985 329.662 261.152 329.736 259.215L331.276 220.911C335.861 217.742 338.586 212.281 338.586 206.282Z" fill="#E6EBE3"/>
<path d="M206.268 215.195C211.124 215.195 215.061 211.252 215.061 206.388C215.061 201.524 211.124 197.581 206.268 197.581C201.412 197.581 197.475 201.524 197.475 206.388C197.475 211.252 201.412 215.195 206.268 215.195Z" fill="#093F2E"/>
<path d="M321.348 215.195C326.204 215.195 330.14 211.252 330.14 206.388C330.14 201.524 326.204 197.581 321.348 197.581C316.492 197.581 312.555 201.524 312.555 206.388C312.555 211.252 316.492 215.195 321.348 215.195Z" fill="#093F2E"/>
<path d="M303.419 233.262H224.417V236.237H303.419V233.262Z" fill="#093F2E"/>
<path d="M256.639 103.141C256.68 103.611 256.752 104.078 256.855 104.538C255.763 105.957 254.531 107.261 253.176 108.43C251.349 109.952 250.15 112.097 249.809 114.451C249.401 117.442 249.585 120.484 250.35 123.403C250.358 123.441 250.368 123.478 250.381 123.514C250.57 124.239 250.828 124.944 251.151 125.621C252.282 129.389 249.391 132.025 249.391 132.025C247.006 134.912 247.133 139.558 247.133 139.558C244.625 151.485 238.609 146.465 238.609 146.465C237.355 144.08 240.114 140.814 240.114 140.814C241.364 139.307 240.862 135.917 240.862 135.917C239.296 133.272 239.423 131.068 239.938 129.543C240.32 128.439 241 127.461 241.901 126.718C243.384 125.532 244.353 123.819 244.607 121.936C244.801 120.277 244.411 118.602 243.503 117.202C239.186 110.114 245.003 104.419 245.003 104.419C250.39 97.1377 257.766 96.2606 257.766 96.2606C256.767 98.4072 256.377 100.787 256.639 103.141Z" fill="#2F2E41"/>
<path d="M255.539 137.781C255.539 137.781 245.012 138.284 244.009 141.797C244.009 141.797 238.728 155.611 242.125 165.528C242.125 165.528 247.644 178.588 247.895 183.86H278.982C278.982 183.86 277.93 176.583 279.783 170.434C280.024 169.684 280.308 168.948 280.632 168.23C281.67 165.85 285.033 156.078 278.872 140.051C278.872 140.051 276.988 139.046 268.213 137.539C268.2 137.521 254.663 137.905 255.539 137.781Z" fill="#C0C7AE"/>
<path d="M299.854 179.183L289.887 181.224L280.645 168.221C280.645 168.221 285.31 157.982 278.885 140.043C278.885 140.043 283.396 140.796 287.281 149.585L297.689 168.415C297.689 168.415 300.33 173.59 300.858 177.835C300.893 178.145 300.809 178.457 300.622 178.708C300.436 178.958 300.161 179.128 299.854 179.183Z" fill="#C0C7AE"/>
<path opacity="0.2" d="M299.854 179.183L289.887 181.224L280.645 168.221C280.645 168.221 285.31 157.982 278.885 140.043C278.885 140.043 283.396 140.796 287.281 149.585L297.689 168.415C297.689 168.415 300.33 173.59 300.858 177.835C300.893 178.145 300.809 178.457 300.622 178.708C300.436 178.958 300.161 179.128 299.854 179.183Z" fill="black"/>
<path d="M223.118 179.439L234.252 181.096L243.054 167.759C243.054 167.759 239.78 161.01 241.734 150.335L243.661 143.04C243.957 141.842 244.655 140.783 245.637 140.038C245.977 139.784 246.356 139.586 246.759 139.452C246.808 139.452 246.803 139.377 246.759 139.377C245.646 139.324 240.55 139.65 236.224 149.206L225.319 169.42C223.873 172.328 222.92 175.456 222.498 178.676C222.479 178.86 222.534 179.043 222.651 179.186C222.767 179.329 222.935 179.42 223.118 179.439Z" fill="#C0C7AE"/>
<path opacity="0.2" d="M223.118 179.439L234.252 181.096L243.054 167.759C243.054 167.759 239.78 161.01 241.734 150.335L243.661 143.04C243.957 141.842 244.655 140.783 245.637 140.038C245.977 139.784 246.356 139.586 246.759 139.452C246.808 139.452 246.803 139.377 246.759 139.377C245.646 139.324 240.55 139.65 236.224 149.206L225.319 169.42C223.873 172.328 222.92 175.456 222.498 178.676C222.479 178.86 222.534 179.043 222.651 179.186C222.767 179.329 222.935 179.42 223.118 179.439Z" fill="black"/>
<path d="M257.171 132.382C257.171 132.382 256.943 136.027 255.077 138.76C254.82 139.125 254.613 139.522 254.461 139.941C253.902 141.541 253.255 145.231 257.92 147.571C259.081 148.13 260.339 148.459 261.625 148.541C264.644 148.766 270.387 148.501 270.919 143.278C271.075 141.742 270.734 140.197 269.947 138.87C269.686 138.442 269.392 138.035 269.067 137.654C268.422 136.804 267.957 135.831 267.699 134.795C267.441 133.76 267.396 132.682 267.566 131.628C267.566 131.628 263.817 135.34 257.171 132.382Z" fill="#F9B499"/>
<path d="M300.044 179.214C300.044 179.214 301.672 188.757 292.144 199.049L288.258 203.457L289.887 181.233L300.044 179.214Z" fill="#F9B499"/>
<path d="M223.581 179.395C223.581 179.395 221.283 186.007 228.602 195.347L236.351 205.264L234.23 181.087L223.581 179.395Z" fill="#F9B499"/>
<path d="M249.84 221.083L253.14 219.646L252.854 218.209C252.854 218.209 262.325 215.909 264.767 214.331H247.974C247.974 214.331 249.268 216.341 249.84 221.083Z" fill="#2F2E41"/>
<path opacity="0.2" d="M249.84 221.083L253.14 219.646L252.854 218.209C252.854 218.209 262.325 215.909 264.767 214.331H247.974C247.974 214.331 249.268 216.341 249.84 221.083Z" fill="black"/>
<path d="M288.883 211.858H235.106V214.37H288.883V211.858Z" fill="#B5C0AC"/>
<path d="M232.329 170.425H291.299C291.363 170.425 291.426 170.438 291.485 170.462C291.543 170.486 291.597 170.522 291.642 170.567C291.687 170.612 291.722 170.666 291.747 170.724C291.771 170.783 291.783 170.846 291.783 170.91V172.435H231.85V170.91C231.85 170.782 231.9 170.66 231.99 170.569C232.08 170.478 232.202 170.426 232.329 170.425Z" fill="white"/>
<path d="M231.365 172.933L235.106 211.858H288.888L292.386 172.783C292.404 172.593 292.381 172.402 292.32 172.221C292.259 172.04 292.161 171.874 292.032 171.733C291.903 171.593 291.746 171.48 291.572 171.404C291.397 171.327 291.208 171.288 291.018 171.289L232.725 171.408C232.533 171.409 232.343 171.45 232.167 171.529C231.991 171.608 231.834 171.723 231.706 171.867C231.578 172.011 231.481 172.18 231.423 172.364C231.364 172.548 231.344 172.742 231.365 172.933Z" fill="#E6EBE3"/>
<path d="M231.48 220.942C231.48 220.942 228.038 216.773 221.147 219.36C221.147 219.36 215.553 221.515 219.857 227.267C219.857 227.267 222.872 232.87 234.64 230.714C234.64 230.714 231.049 230.141 229.473 227.122C229.464 227.122 227.022 222.379 231.48 220.942Z" fill="#C0C7AE"/>
<path d="M255.869 229.136L253.14 219.646C253.14 219.646 238.935 226.258 231.471 220.942C231.471 220.942 227.312 221.947 229.464 227.113C229.464 227.113 231.04 231.137 237.641 230.992C237.641 231.001 249.268 230.282 255.869 229.136Z" fill="#F9B499"/>
<path d="M252.854 218.209L255.869 229.136C255.869 229.136 284.571 224.821 296.193 218.928C296.193 218.928 311.552 212.894 303.371 202.831C303.371 202.831 300.211 196.792 286.15 204.122C286.15 204.122 265.771 215.481 252.854 218.209Z" fill="#2F2E41"/>
<path d="M259.491 275.338C259.491 275.338 265.973 289.91 275.619 283.894C275.619 283.894 278.546 282.201 276.328 277.679C275.441 275.925 274.097 274.444 272.438 273.394C271.248 272.601 269.983 271.926 268.662 271.38C268.662 271.38 263.759 275.814 259.491 275.338Z" fill="#C0C7AE"/>
<path d="M248.264 258.734L257.303 254.855C257.303 254.855 252.709 239.781 250.843 225.399C250.843 225.399 248.401 208.147 242.231 205.564C242.231 205.564 232.329 201.535 230.749 211.025C230.749 211.025 228.311 217.35 235.199 232.87L248.264 258.734Z" fill="#2F2E41"/>
<path d="M248.264 258.734C248.264 258.734 252.938 266.602 258.778 274.386C259.615 275.534 260.7 276.478 261.951 277.15C263.742 278.08 266.241 278.56 268.503 276.123C268.787 275.908 269.023 275.639 269.199 275.329C269.637 274.549 269.749 273.626 269.512 272.763C269.274 271.9 268.706 271.165 267.931 270.719C264.851 268.898 258.175 263.935 257.304 254.851L248.264 258.734Z" fill="#F9B499"/>
<path d="M256.819 134.604C256.819 134.604 257.119 133.012 257.171 132.4C257.171 132.4 262.149 133.898 265.713 132.25C265.713 132.232 261.229 135.525 256.819 134.604Z" fill="#F7A48B"/>
<path d="M274.22 117.625C274.22 126.467 268.688 133.634 261.872 133.634C256.648 133.634 252.19 129.433 250.381 123.496C250.368 123.46 250.358 123.423 250.35 123.386C249.585 120.466 249.401 117.424 249.809 114.434C250.154 112.085 251.353 109.947 253.176 108.43C254.53 107.261 255.763 105.957 256.855 104.538C256.752 104.078 256.68 103.611 256.639 103.141C258.211 102.166 260.022 101.646 261.872 101.638C268.688 101.62 274.22 108.787 274.22 117.625Z" fill="#F9B499"/>
<path d="M280.487 140.92C276.306 153.178 285.006 156.977 288.751 157.762C290.272 158.077 291.855 157.861 293.236 157.149C304.004 151.648 299.947 142.678 297.324 138.637C296.65 137.654 295.883 136.737 295.036 135.899C294.507 135.327 294.093 134.658 293.817 133.929C293.202 132.357 293.111 130.629 293.557 129.001C295.348 122.429 289.887 121.089 289.887 121.089C285.627 118.833 284.874 113.182 284.874 113.182C285.754 101.378 279.36 97.6093 279.36 97.6093C267.702 88.9481 261.317 93.0914 261.317 93.0914C256.168 95.5377 255.992 101.246 256.551 104.503C256.846 106.213 258.06 107.778 259.398 108.88C261.255 110.409 264.6 112.543 270.092 114.169C270.092 114.169 274.73 115.8 273.476 122.205C273.476 122.205 273.225 126.722 277.736 131.245C277.727 131.254 282.243 135.758 280.487 140.92Z" fill="#2F2E41"/>
</svg>
